<svg id="visual" viewBox="0 0 900 600" width="900" height="600" xmlns="http://www.w3.org/2000/svg" xmlns:xlink="http://www.w3.org/1999/xlink" version="1.1"><rect x="0" y="0" width="900" height="600" fill="#001220"></rect><g fill="#9AC5F4"><circle r="75" cx="284" cy="432"></circle><circle r="33" cx="156" cy="286"></circle><circle r="53" cx="171" cy="598"></circle><circle r="65" cx="732" cy="131"></circle><circle r="72" cx="34" cy="57"></circle><circle r="35" cx="445" cy="145"></circle><circle r="72" cx="694" cy="462"></circle><circle r="34" cx="685" cy="313"></circle><circle r="35" cx="437" cy="594"></circle><circle r="49" cx="516" cy="301"></circle><circle r="49" cx="848" cy="425"></circle><circle r="44" cx="894" cy="158"></circle><circle r="65" cx="219" cy="95"></circle><circle r="69" cx="27" cy="532"></circle><circle r="38" cx="785" cy="598"></circle><circle r="69" cx="325" cy="237"></circle><circle r="44" cx="363" cy="19"></circle><circle r="63" cx="584" cy="29"></circle><circle r="47" cx="4" cy="290"></circle><circle r="32" cx="511" cy="464"></circle><circle r="53" cx="812" cy="2"></circle><circle r="52" cx="603" cy="592"></circle></g></svg>